<svg width="1506" height="942" viewBox="0 0 1506 942" fill="none" xmlns="http://www.w3.org/2000/svg">
<path d="M1489.12 0H16.8502C7.67348 0 0.234253 7.4402 0.234253 16.6182V924.436C0.234253 933.614 7.67348 941.054 16.8502 941.054H1489.12C1498.3 941.054 1505.74 933.614 1505.74 924.436V16.6182C1505.74 7.4402 1498.3 0 1489.12 0Z" fill="#FBFBFB"/>
<mask id="mask0_1525_8559" style="mask-type:luminance" maskUnits="userSpaceOnUse" x="622" y="0" width="884" height="771">
<path d="M1489.54 0H1001.84C998.593 37.8599 975.716 108.19 856.868 145.838C689.018 199.022 607.655 268.903 624.324 392.654C640.993 516.405 758.916 603.327 919.502 627.633C1080.11 651.94 1128.43 751.57 1262.07 766.101C1372.31 778.069 1442.94 763.247 1505.71 728.584V16.1955C1505.71 7.26549 1498.47 0 1489.52 0H1489.54Z" fill="white"/>
</mask>
<g mask="url(#mask0_1525_8559)">
<path d="M1489.54 0H1001.84C998.593 37.8599 975.716 108.19 856.868 145.838C689.018 199.022 607.655 268.903 624.324 392.654C640.993 516.405 758.916 603.327 919.502 627.633C1080.11 651.94 1128.43 751.57 1262.07 766.101C1372.31 778.069 1442.94 763.247 1505.71 728.584V16.1955C1505.71 7.26549 1498.47 0 1489.52 0H1489.54Z" fill="#F5F5F5"/>
<path d="M1213.23 275.111L1125.47 302.35L1058.06 262.218C1056.71 261.426 1056.95 259.392 1058.45 258.942C1066.62 256.406 1075.25 255.719 1083.71 256.908L1213.2 275.111H1213.23Z" fill="#FFBB8A"/>
<path d="M1076.18 256.38L1139.39 294.002L1204.27 273.87L1083.73 256.934C1081.22 256.591 1078.71 256.406 1076.18 256.406V256.38Z" fill="#FFBB8A"/>
<path d="M917.494 333.975L916.384 334.319C908.116 336.881 899.187 336.142 891.474 332.231L810.085 291.016C806.783 289.325 802.926 289.008 799.386 290.118L793.733 291.862C792.65 292.205 792.121 293.394 792.544 294.424L821.972 363.645L826.251 373.605L920.69 344.279L917.494 333.975Z" fill="#FFBB8A"/>
<path d="M1002.42 377.964L1363.46 265.864C1384.17 259.444 1404.06 250.699 1422.82 239.814L1470.31 212.232C1471 211.835 1471.63 211.36 1472.21 210.805C1478.29 204.993 1474.91 194.715 1466.56 193.658L1413.38 186.869C1402.82 185.521 1392.09 186.446 1381.9 189.616L827.995 361.61C826.727 362.007 825.618 362.799 824.799 363.856C822.21 367.317 823.768 372.311 827.889 373.658L837.505 376.802C891.025 394.266 948.666 394.662 1002.42 377.964Z" fill="#FFBB8A"/>
<path d="M978.807 364.754L1379.12 240.448C1402.08 233.315 1424.16 223.619 1444.93 211.571L1471.79 195.957C1470.39 194.742 1468.62 193.896 1466.53 193.632L1413.36 186.842C1402.79 185.495 1392.07 186.419 1381.87 189.59L827.969 361.584C826.701 361.98 825.591 362.773 824.772 363.83C823.055 366.128 823.187 369.061 824.666 371.201C875.571 382.403 928.695 380.289 978.78 364.728L978.807 364.754Z" fill="#FBFBFB"/>
<path d="M1397.24 203.513L1439.93 190.25L1413.31 186.763L1393.89 192.787C1390.93 193.711 1389.27 196.855 1390.19 199.814C1391.12 202.773 1394.26 204.438 1397.22 203.513H1397.24Z" fill="#FFBB8A"/>
<path d="M1337.52 226.396L1340.91 225.346C1342.15 224.961 1342.84 223.643 1342.45 222.403L1341.4 219.022C1341.02 217.782 1339.7 217.089 1338.46 217.474L1335.08 218.523C1333.84 218.909 1333.15 220.226 1333.53 221.466L1334.58 224.847C1334.97 226.088 1336.28 226.781 1337.52 226.396Z" fill="#FFBB8A"/>
<path d="M1314.11 233.784L1317.49 232.734C1318.73 232.349 1319.42 231.031 1319.04 229.791L1317.99 226.41C1317.6 225.17 1316.29 224.477 1315.05 224.862L1311.66 225.911C1310.42 226.297 1309.73 227.614 1310.12 228.854L1311.17 232.235C1311.55 233.476 1312.87 234.169 1314.11 233.784Z" fill="#FFBB8A"/>
<path d="M1290.69 240.988L1294.07 239.938C1295.31 239.553 1296 238.235 1295.61 236.995L1294.56 233.614C1294.18 232.374 1292.86 231.681 1291.62 232.066L1288.24 233.116C1287 233.501 1286.31 234.818 1286.69 236.058L1287.74 239.44C1288.13 240.68 1289.45 241.373 1290.69 240.988Z" fill="#FFBB8A"/>
<path d="M1267.27 248.296L1270.65 247.247C1271.89 246.862 1272.58 245.544 1272.2 244.304L1271.15 240.923C1270.76 239.682 1269.45 238.989 1268.21 239.374L1264.83 240.424C1263.59 240.809 1262.89 242.127 1263.28 243.367L1264.33 246.748C1264.71 247.988 1266.03 248.682 1267.27 248.296Z" fill="#FFBB8A"/>
<path d="M1243.88 255.465L1247.26 254.415C1248.5 254.03 1249.19 252.713 1248.81 251.472L1247.76 248.091C1247.37 246.851 1246.06 246.158 1244.82 246.543L1241.44 247.593C1240.2 247.978 1239.5 249.296 1239.89 250.536L1240.94 253.917C1241.32 255.157 1242.64 255.85 1243.88 255.465Z" fill="#FFBB8A"/>
<path d="M1220.46 262.721L1223.84 261.671C1225.08 261.286 1225.78 259.968 1225.39 258.728L1224.34 255.347C1223.96 254.107 1222.64 253.414 1221.4 253.799L1218.02 254.849C1216.78 255.234 1216.09 256.551 1216.47 257.792L1217.52 261.173C1217.91 262.413 1219.22 263.106 1220.46 262.721Z" fill="#FFBB8A"/>
<path d="M1197.05 270.109L1200.43 269.059C1201.67 268.674 1202.36 267.356 1201.98 266.116L1200.93 262.735C1200.54 261.495 1199.22 260.802 1197.98 261.187L1194.6 262.237C1193.36 262.622 1192.67 263.939 1193.06 265.18L1194.11 268.561C1194.49 269.801 1195.81 270.494 1197.05 270.109Z" fill="#FFBB8A"/>
<path d="M1173.63 277.391L1177.01 276.341C1178.25 275.956 1178.95 274.639 1178.56 273.398L1177.51 270.017C1177.13 268.777 1175.81 268.084 1174.57 268.469L1171.19 269.519C1169.95 269.904 1169.26 271.222 1169.64 272.462L1170.69 275.843C1171.08 277.083 1172.39 277.776 1173.63 277.391Z" fill="#FFBB8A"/>
<path d="M1150.22 284.647L1153.6 283.597C1154.84 283.212 1155.53 281.895 1155.15 280.654L1154.1 277.273C1153.71 276.033 1152.39 275.34 1151.15 275.725L1147.77 276.775C1146.53 277.16 1145.84 278.477 1146.22 279.718L1147.27 283.099C1147.66 284.339 1148.98 285.032 1150.22 284.647Z" fill="#FFBB8A"/>
<path d="M1126.82 291.791L1130.2 290.741C1131.44 290.356 1132.13 289.038 1131.75 287.798L1130.7 284.417C1130.31 283.177 1129 282.483 1127.76 282.868L1124.37 283.918C1123.13 284.303 1122.44 285.621 1122.83 286.861L1123.88 290.242C1124.26 291.482 1125.58 292.176 1126.82 291.791Z" fill="#FFBB8A"/>
<path d="M1103.4 299.073L1106.78 298.023C1108.02 297.638 1108.72 296.32 1108.33 295.08L1107.28 291.699C1106.9 290.459 1105.58 289.766 1104.34 290.151L1100.96 291.201C1099.72 291.586 1099.03 292.903 1099.41 294.143L1100.46 297.524C1100.85 298.765 1102.16 299.458 1103.4 299.073Z" fill="#FFBB8A"/>
<path d="M1079.99 306.434L1083.37 305.385C1084.61 304.999 1085.3 303.682 1084.92 302.442L1083.87 299.061C1083.48 297.82 1082.16 297.127 1080.92 297.512L1077.54 298.562C1076.3 298.947 1075.61 300.265 1076 301.505L1077.05 304.886C1077.43 306.126 1078.75 306.819 1079.99 306.434Z" fill="#FFBB8A"/>
<path d="M1056.57 313.717L1059.95 312.667C1061.19 312.282 1061.89 310.964 1061.5 309.724L1060.45 306.343C1060.07 305.103 1058.75 304.409 1057.51 304.795L1054.13 305.844C1052.89 306.229 1052.19 307.547 1052.58 308.787L1053.63 312.168C1054.01 313.408 1055.33 314.102 1056.57 313.717Z" fill="#FFBB8A"/>
<path d="M1250.5 270.858L1115.38 312.813L1065.74 420.527C1064.37 423.486 1067.17 426.656 1070.29 425.705L1073.59 424.675C1082.62 421.874 1090.89 417.119 1097.87 410.725L1250.53 270.858H1250.5Z" fill="#FFBB8A"/>
<path d="M1093.64 412.627C1093.35 413.261 1093.27 413.896 1093.3 414.503C1094.85 413.314 1096.39 412.073 1097.84 410.725L1250.5 270.858L1143.7 304.015L1093.64 412.601V412.627Z" fill="#FFBB8A"/>
<path d="M871.609 355.455L824.059 370.223L805.33 410.831L814.153 408.083L871.609 355.455Z" fill="#FFBB8A"/>
<path d="M848.679 239.339C851.426 234.266 858.929 230.646 867.778 230.646C870.235 230.646 872.586 230.937 874.752 231.465C875.835 228.401 878.635 225.732 882.466 223.909C884.817 212.496 900.085 203.672 918.603 203.672C932.578 203.672 944.703 208.691 950.832 216.063C954.213 214.821 958.149 214.081 962.349 214.081C975.108 214.081 985.437 220.686 985.437 228.823C985.437 229.458 985.358 230.092 985.226 230.726C985.913 230.673 986.599 230.646 987.313 230.646C996.162 230.646 1003.66 234.292 1006.41 239.339H848.705H848.679Z" fill="#FBFBFB"/>
<path d="M573.868 321.241C576.616 316.168 584.118 312.549 592.967 312.549C595.424 312.549 597.775 312.839 599.941 313.368C601.025 310.303 603.825 307.634 607.655 305.811C610.006 294.398 625.275 285.574 643.793 285.574C657.767 285.574 669.892 290.594 676.021 297.965C679.402 296.723 683.338 295.983 687.538 295.983C700.298 295.983 710.627 302.588 710.627 310.726C710.627 311.36 710.547 311.994 710.415 312.628C711.102 312.575 711.789 312.549 712.502 312.549C721.352 312.549 728.854 316.195 731.601 321.241H573.895H573.868Z" fill="#FBFBFB"/>
<path d="M1217.43 372.363C1220.17 367.291 1227.68 363.671 1236.53 363.671C1238.98 363.671 1241.33 363.962 1243.5 364.49C1244.58 361.425 1247.38 358.757 1251.21 356.934C1253.56 345.521 1268.83 336.696 1287.35 336.696C1301.33 336.696 1313.45 341.716 1319.58 349.087C1322.96 347.845 1326.9 347.106 1331.1 347.106C1343.86 347.106 1354.18 353.711 1354.18 361.848C1354.18 362.482 1354.11 363.116 1353.97 363.75C1354.66 363.698 1355.35 363.671 1356.06 363.671C1364.91 363.671 1372.41 367.317 1375.16 372.363H1217.45H1217.43Z" fill="#FBFBFB"/>
<path d="M1271.4 196.776C1268.62 191.65 1261.01 187.952 1252.03 187.952C1249.55 187.952 1247.15 188.242 1244.95 188.771C1243.87 185.653 1241.02 182.958 1237.13 181.109C1234.73 169.511 1219.25 160.581 1200.47 160.581C1186.28 160.581 1174 165.68 1167.76 173.156C1164.33 171.888 1160.34 171.149 1156.09 171.149C1143.14 171.149 1132.66 177.859 1132.66 186.102C1132.66 186.763 1132.74 187.397 1132.87 188.031C1132.18 187.978 1131.47 187.952 1130.75 187.952C1121.77 187.952 1114.16 191.65 1111.39 196.776H1271.42H1271.4Z" fill="#FBFBFB"/>
<path d="M1252.35 58.0445C1254.54 54.0023 1260.54 51.0961 1267.59 51.0961C1269.55 51.0961 1271.42 51.3339 1273.17 51.7302C1274.04 49.2731 1276.26 47.1595 1279.32 45.7064C1281.2 36.5915 1293.4 29.5374 1308.17 29.5374C1319.32 29.5374 1329.01 33.5532 1333.9 39.4184C1336.59 38.4145 1339.74 37.8333 1343.09 37.8333C1353.26 37.8333 1361.53 43.1172 1361.53 49.6166C1361.53 50.1185 1361.45 50.6469 1361.37 51.1225C1361.93 51.0961 1362.48 51.0697 1363.03 51.0697C1370.11 51.0697 1376.08 53.9759 1378.28 58.0181H1252.35V58.0445Z" fill="#FBFBFB"/>
<path d="M1053.22 39.5506C1054.2 37.7541 1056.84 36.4595 1059.98 36.4595C1060.86 36.4595 1061.68 36.5652 1062.47 36.7501C1062.84 35.6669 1063.84 34.7158 1065.19 34.0817C1066.03 30.0394 1071.42 26.9219 1077.97 26.9219C1082.91 26.9219 1087.22 28.692 1089.39 31.3076C1090.57 30.8585 1091.97 30.5943 1093.45 30.5943C1097.97 30.5943 1101.62 32.9192 1101.62 35.8254C1101.62 36.0632 1101.59 36.2746 1101.54 36.4859C1101.78 36.4859 1102.01 36.4859 1102.28 36.4859C1105.42 36.4859 1108.06 37.7805 1109.04 39.5771H1053.2L1053.22 39.5506Z" fill="#FBFBFB"/>
<path d="M1572.73 314.16C1570.25 309.563 1563.43 306.261 1555.4 306.261C1553.15 306.261 1551.04 306.525 1549.06 307C1548.08 304.2 1545.55 301.796 1542.06 300.158C1539.92 289.775 1526.05 281.769 1509.25 281.769C1496.57 281.769 1485.55 286.314 1479.98 293.024C1476.89 291.888 1473.35 291.228 1469.52 291.228C1457.95 291.228 1448.57 297.225 1448.57 304.623C1448.57 305.204 1448.65 305.785 1448.76 306.34C1448.15 306.287 1447.51 306.287 1446.88 306.287C1438.85 306.287 1432.03 309.59 1429.55 314.187H1572.76L1572.73 314.16Z" fill="#FBFBFB"/>
<path d="M1647.88 617.303H591.25V806.787H1647.88V617.303Z" fill="#FFBB8A"/>
<path d="M1647.88 547.396H591.25V588.347H1647.88V547.396Z" fill="#FFBB8A"/>
<path opacity="0.1" d="M1505.74 0H575.823V792.626H1505.74V0Z" fill="#FFBB8A"/>
<g opacity="0.39">
<path d="M563.566 786.101H522.171L1059.64 -41.1096H1101.04L563.566 786.101Z" fill="#FBFBFB"/>
<path d="M1244.53 786.101H1203.14L1740.61 -41.1096H1782L1244.53 786.101Z" fill="#FBFBFB"/>
<path d="M1168.05 786.101H1012.43L1549.9 -41.1096H1705.55L1168.05 786.101Z" fill="#FBFBFB"/>
<path d="M488.754 786.101H333.108L870.605 -41.1096H1026.25L488.754 786.101Z" fill="#FBFBFB"/>
</g>
<path d="M830.742 -91.5718H807.998V782.851H830.742V-91.5718Z" fill="#FBFBFB"/>
<path d="M1415.6 -91.5718H1392.86V782.851H1415.6V-91.5718Z" fill="#FBFBFB"/>
<path d="M1717.73 148.533V125.257L505.846 125.257V148.533L1717.73 148.533Z" fill="#FBFBFB"/>
</g>
<path d="M1028.89 813.789C1142.49 813.789 1234.57 804.811 1234.57 793.736C1234.57 782.661 1142.49 773.683 1028.89 773.683C915.299 773.683 823.214 782.661 823.214 793.736C823.214 804.811 915.299 813.789 1028.89 813.789Z" fill="#F5F5F5"/>
<path d="M1113.13 512.178L1040.09 530.619C1040.09 530.619 1058.95 612.521 1066.3 642.534C1073.83 673.261 1069.65 772.124 1069.65 772.124H1090.55L1101.85 642.164L1113.16 512.204L1113.13 512.178Z" fill="#236B44"/>
<path d="M1097.23 379.074C1097.23 379.074 1104.68 404.781 1116.73 448.4C1116.73 448.4 1132.23 454.028 1174.18 457.013L1172.86 470.963C1172.86 470.963 1126.61 479.338 1101.09 468.796C1075.57 458.281 1054.2 364.966 1097.23 379.074Z" fill="#FFA689"/>
<path d="M1137.68 468.981L1159.55 494.318L1194.89 448.294L1180.6 420.712L1137.68 468.981Z" fill="#5EB083"/>
<path d="M1133.85 479.602L1170.96 429.827L1194.89 448.294L1159.55 494.318L1133.85 479.602Z" fill="#5EB083"/>
<path d="M1188.74 458.519C1188.58 457.753 1187.6 457.462 1186.94 457.885C1185.67 458.704 1184.14 460.606 1180.55 460.712C1176.96 460.818 1172.25 458.308 1170.7 459.946C1170.7 459.946 1162.93 469.853 1170.8 479.655C1170.8 479.655 1194.63 485.864 1188.74 458.519Z" fill="#FFA689"/>
<path d="M1082.52 453.446C1082.52 453.446 1101.09 450.699 1116.33 437.568C1116.33 437.568 1110.94 408.585 1103.44 391.095C1095.94 373.605 1084.1 358.308 1064.87 369.695C1045.64 381.082 1051.24 407.185 1082.52 453.446Z" fill="#5EB083"/>
<path d="M1020.47 441.769C1020.47 441.769 1036.32 451.835 1056.42 451.835C1056.42 451.835 1071.26 426.366 1077 408.215C1082.73 390.091 1083.76 370.752 1061.75 366.815C1039.75 362.879 1026.94 386.313 1020.44 441.769H1020.47Z" fill="#5EB083"/>
<path d="M1103.07 520.051C1103.07 520.051 1057.92 504.807 1029.95 530.038C1029.95 530.038 1035.07 553.737 1050.53 582.085C1076.63 630.038 1089.99 645.546 1089.99 645.546C1089.99 645.546 1061.54 670.857 1006.73 734.133C1006.73 734.133 1010.16 747.078 1021.21 751.226C1021.21 751.226 1101.54 675.454 1125.76 655.242C1133.69 648.637 1132.08 643.67 1128.96 629.034C1123.67 604.252 1106.19 531.333 1103.1 520.051H1103.07Z" fill="#236B44"/>
<path d="M1064.63 332.205L1063.66 352.02C1063.66 352.02 1079.22 364.834 1092.03 364.252L1097.95 337.832L1061.68 313.183L1064.63 332.205Z" fill="#FFA689"/>
<path d="M1072.11 328.744C1072.11 328.744 1080.38 344.173 1095.46 348.876L1097.95 337.806L1072.11 328.718V328.744Z" fill="#ED8A6D"/>
<path d="M1040.25 601.874L1003.37 573.869C1001.31 572.284 1000.89 569.351 1002.48 567.264C1004.06 565.203 1006.99 564.78 1009.08 566.366L1045.96 594.371C1048.02 595.956 1048.44 598.889 1046.86 600.976C1045.27 603.037 1042.34 603.459 1040.25 601.874Z" fill="#07150E"/>
<path d="M1009.58 576.986L928.51 683.776" stroke="#07150E" stroke-width="0.94" stroke-miterlimit="10"/>
<path d="M1035.55 596.775L954.477 703.538" stroke="#07150E" stroke-width="0.94" stroke-miterlimit="10"/>
<path d="M1032.3 382.588C1032.3 382.588 992.834 384.569 986.494 406.841C980.154 429.113 980.999 516.643 980.999 516.643C980.999 516.643 989.32 536.537 1016 539.1C1016 539.1 1029.92 542.323 1029.1 513.103C1028.31 483.909 1032.27 382.588 1032.27 382.588H1032.3Z" fill="#050D08"/>
<path d="M1010.08 386.895C1010.08 386.895 1006.12 390.356 1004.01 394.9C996.268 411.544 998.645 456.432 995.37 460.051C992.622 463.063 987.973 463.618 983.377 464.886C981.422 465.415 979.124 464.173 979.229 462.271C980.973 423.883 978.014 391.941 1010.08 386.895Z" fill="#18432B"/>
<path d="M981.369 470.302C981.369 470.302 991.988 467.872 993.838 470.408C996.479 474.028 995.449 515.216 992.49 516.352C989.558 517.488 979.203 516.59 978.622 515.718C976.429 512.469 975.055 471.65 981.369 470.329V470.302Z" fill="#18432B"/>
<path d="M1114.9 282.535C1114.9 282.535 1125.84 335.772 1109.59 342.271C1093.35 348.77 1069.57 332.205 1063.76 315.349C1058.8 300.976 1059.32 266.842 1114.9 282.535Z" fill="#FFA689"/>
<path d="M1098.79 290.884C1098.79 290.884 1103.2 302.192 1094.48 304.86C1087.38 307.027 1085.32 312.258 1085.32 312.258C1085.32 312.258 1083.87 300.897 1076.13 300.475C1067.7 300.025 1068.17 312.047 1075.57 317.965C1075.57 317.965 1075.57 332.231 1064.63 332.231C1064.63 332.231 1039.96 303.909 1050.74 286.815C1049.15 281.611 1056.52 267.714 1075.44 265.944C1094.35 264.174 1099.79 268.586 1114.16 264.121C1127.9 259.867 1136.96 292.813 1098.82 290.911L1098.79 290.884Z" fill="#050D08"/>
<path opacity="0.22" d="M1067.62 515.639L1116.3 642.138L1013.04 741.319" stroke="#FBFBFB" stroke-width="0.25" stroke-miterlimit="10"/>
<path d="M930.702 793.657C930.702 800.182 925.419 805.493 918.868 805.493C912.316 805.493 907.033 800.209 907.033 793.657C907.033 787.105 912.316 781.821 918.868 781.821C925.419 781.821 930.702 787.105 930.702 793.657Z" fill="#07150E"/>
<path d="M886.64 772.785C886.64 779.311 881.356 784.621 874.805 784.621C868.254 784.621 862.97 779.337 862.97 772.785C862.97 766.233 868.254 760.949 874.805 760.949C881.356 760.949 886.64 766.233 886.64 772.785Z" fill="#07150E"/>
<path d="M982.531 681.504C982.531 681.504 986.177 734.344 967.263 763.512C948.348 792.679 920.743 787.95 920.743 787.95L926.423 779.02C926.423 779.02 946.367 787.184 958.175 756.035C970.01 724.886 967.632 692.548 967.632 692.548L982.505 681.504H982.531Z" fill="#07150E"/>
<path d="M960.659 666.577C960.659 666.577 972.493 667.713 981.871 678.968C989.109 687.633 934.929 771.438 922.751 790.037C921.298 792.257 918.603 793.287 916.041 792.6C907.324 790.275 887.168 784.014 872.533 772.97C872.533 772.97 928.457 674.82 960.659 666.577Z" fill="#050D08"/>
<path d="M964.859 667.501C964.859 667.501 920.373 640.738 896.493 662.957C880.643 677.699 850.105 719.232 838.271 735.612C835.418 739.575 835.867 745.018 839.354 748.452C846.988 755.929 862.997 767.765 874.277 773.921C875.941 774.846 878.028 774.291 879.084 772.706C888.753 758.043 935.008 689.192 964.885 667.475L964.859 667.501Z" fill="#18432B"/>
<path d="M866.352 700.975C864.608 699.602 861.993 700.341 860.646 702.112C854.993 709.536 840.86 728.109 838.773 731.623C834.678 738.492 851.426 753.023 871.899 763.829C878.292 767.21 886.111 752.547 894.353 741.319C899.795 733.895 904.497 727.369 903.89 724.965C903.203 722.376 892.557 719.047 882.809 713.023C876.443 709.06 871.001 704.648 866.352 701.002V700.975Z" fill="#236B44"/>
<path d="M964.859 667.501C964.859 667.501 944.756 653.261 916.252 652.812C892.029 652.442 865.427 694.37 865.427 694.37C861.993 698.783 903.493 723.934 908.116 718.201C926.449 695.612 944.386 678.466 953.526 670.196C954.16 669.668 959.074 665.705 964.885 667.501H964.859Z" fill="#236B44"/>
<path d="M889.466 768.505L914.245 731.121C915.143 729.773 916.913 729.271 918.366 729.984L942.616 741.477C944.148 742.217 944.677 744.119 943.752 745.546L919.74 781.953C918.366 784.04 915.671 784.885 913.347 783.908L891.368 774.74C888.911 773.71 888.013 770.724 889.466 768.505Z" fill="#103F26"/>
<path d="M1058.14 354.53C1058.14 354.53 1033.89 358.916 1029.95 395.19C1026.01 431.465 1029.95 534.133 1029.95 534.133C1029.95 534.133 1052.67 542.931 1078.42 530.382C1095.01 522.297 1105.61 521.848 1110.1 520.844C1111.92 520.421 1113.19 518.862 1113.21 516.987C1113.27 513.024 1113.32 505.415 1113.29 493.948C1113.21 461.901 1109.75 407.37 1095.96 369.959C1095.96 369.959 1072.56 355.666 1058.16 354.53H1058.14Z" fill="#5EB083"/>
<path d="M1074.49 420.791C1054.25 419.787 1039.27 427.898 1028.21 440.342C1027.99 483.142 1029.95 534.133 1029.95 534.133C1029.95 534.133 1043.47 539.338 1061.44 535.982C1048.57 516.3 1048.47 498.255 1059.59 476.115C1068.49 458.413 1074.49 420.791 1074.49 420.791Z" fill="#5EB083"/>
<path d="M1029.95 395.19C1029.95 395.19 1049.18 363.883 1063.26 369.167C1080.56 375.666 1084.08 409.114 1058.14 444.147L1044.32 458.757L1040.78 471.755C1040.78 471.755 1075.97 440.712 1084.23 410.54C1092.5 380.369 1081.65 368.4 1066.48 363.222C1047.86 356.855 1038.93 368.215 1027.57 383.909L1029.92 395.137L1029.95 395.19Z" fill="#050D08"/>
<path d="M1026.78 427.528C1026.78 427.528 1020.86 453.156 1018.91 485.494C1017.24 512.68 1016.98 546.154 1016.95 556.114C1016.95 557.832 1016.29 559.47 1015.08 560.659C1011.85 563.829 1005.65 571.676 1006.7 584.252C1007.07 588.664 1009 594.767 1019.96 598.281C1021.47 598.756 1025.43 600.421 1025.43 592.733C1025.43 585.044 1028.55 579.866 1031.69 577.303C1034.84 574.741 1038.06 581.504 1038.06 586.999C1038.06 592.495 1041.76 589.007 1042.5 585.097C1043.24 581.187 1042.66 570.672 1034.36 559.734C1034.36 559.734 1034.2 557.805 1035.26 544.648C1036.29 531.491 1038.51 486.947 1043.24 475.56C1047.97 464.173 1061.57 431.703 1061.57 431.703L1026.83 427.502L1026.78 427.528Z" fill="#FFA689"/>
<path d="M1020.47 444.305C1020.47 444.305 1036.32 451.835 1056.42 451.835C1056.42 451.835 1071.26 426.366 1077 408.215C1082.73 390.091 1083.76 370.752 1061.75 366.815C1039.75 362.879 1026.94 388.85 1020.44 444.305H1020.47Z" fill="#5EB083"/>
<path d="M1070.05 769.958C1070.05 769.958 1064.24 778.412 1067.09 790.645C1067.51 792.468 1069.07 793.709 1070.79 793.709H1133.55C1134.85 793.709 1135.88 792.494 1135.72 791.12C1135.3 787.554 1132.37 781.345 1117.44 779.522C1113.35 779.02 1109.44 777.488 1106.19 774.951C1100.82 770.751 1092.64 764.991 1089.81 766.576C1089.81 766.576 1080.8 772.019 1070.02 769.958H1070.05Z" fill="#050D08"/>
<path d="M1063.87 347.687C1061.62 347.767 1058.11 354.53 1058.11 354.53C1058.11 354.53 1064.77 359.656 1080.91 365.574C1088.38 368.321 1092.13 372.179 1093.85 374.609C1094.38 375.349 1095.51 375.058 1095.62 374.16C1096.1 370.567 1096.31 364.253 1092.79 360.607C1092.79 360.607 1070.55 354.53 1063.81 347.687H1063.87Z" fill="#236B44"/>
<path d="M1007.05 734.317C1007.05 734.317 996.876 735.612 989.611 745.863C988.528 747.369 988.634 749.377 989.796 750.671L1031.53 797.567C1032.41 798.544 1033.99 798.492 1034.92 797.461C1037.29 794.766 1039.96 788.452 1031.45 776.087C1029.1 772.706 1027.65 768.769 1027.39 764.647C1026.96 757.831 1025.83 747.897 1022.74 746.84C1022.74 746.84 1012.7 743.723 1007.07 734.317H1007.05Z" fill="#050D08"/>
<path d="M1032.93 584.49L1042.81 591.993L1041.99 596.379L1030.48 590.619L1032.93 584.49Z" fill="#07150E"/>
<path d="M763.142 675.11C763.142 677.937 747.689 680.236 728.616 680.236C709.543 680.236 694.09 677.937 694.09 675.11C694.09 672.283 709.543 669.985 728.616 669.985C747.689 669.985 763.142 672.283 763.142 675.11Z" fill="#103F26"/>
<path d="M728.616 799.469C764.448 799.469 793.495 796.122 793.495 791.992C793.495 787.863 764.448 784.516 728.616 784.516C692.784 784.516 663.737 787.863 663.737 791.992C663.737 796.122 692.784 799.469 728.616 799.469Z" fill="#F5F5F5"/>
<path d="M737.017 684.119C737.017 684.119 729.858 662.561 738.998 652.812C748.138 643.063 733.503 626.603 755.165 617.33C776.826 608.03 776.087 586.313 794.922 586.233C813.783 586.128 828.603 577.356 834.758 585.679C840.913 594.001 812.33 598.043 812.277 612.178C812.224 626.312 809.424 627.66 801.711 636.484C797.378 641.425 799.386 652.336 789.77 662.931C782.242 671.226 762.403 668.426 737.017 684.119Z" fill="#236B44"/>
<path d="M737.017 684.119C737.017 684.119 746.051 662.481 766.841 651.042C787.631 639.575 780.287 592.944 834.784 585.678" stroke="#FBFBFB" stroke-width="0.4" stroke-linecap="round" stroke-linejoin="round"/>
<path d="M741.27 694.37C741.27 694.37 737.466 663.538 744.44 638.756C751.414 613.974 740.002 606.048 720.48 599.628C700.932 593.235 713.215 572.812 707.404 553.763C701.592 534.714 686.957 564.305 682.097 538.387C677.236 512.469 669.839 499.074 663.922 500.183C658.005 501.293 656.024 507.026 651.823 536.669C647.597 566.313 627.018 564.12 644.876 587.634C662.733 611.121 667.277 604.49 657.371 624.886C636.185 668.452 712.027 655.559 741.296 694.37H741.27Z" fill="#5EB083"/>
<path d="M741.27 694.371C741.27 694.371 731.548 642.508 703.52 616.907C675.493 591.306 656.922 563.909 663.922 500.21" stroke="#FBFBFB" stroke-width="0.48" stroke-linecap="round" stroke-linejoin="round"/>
<path d="M731.522 690.143C731.522 690.143 701.09 609.509 680.142 614.582C659.194 619.681 657.08 620.738 638.007 605.467C618.908 590.196 605.04 606.867 619.648 619.1C634.256 631.332 634.758 632.442 620.837 645.89C606.915 659.364 640.121 674.423 669.337 669.905C698.554 665.361 726.952 683.459 731.522 690.143Z" fill="#236B44"/>
<path d="M731.522 690.143C731.522 690.143 717.257 660.156 678.821 652.389C640.385 644.621 658.348 619.285 613.572 607.554" stroke="#FBFBFB" stroke-width="0.44" stroke-linecap="round" stroke-linejoin="round"/>
<path d="M728.616 680.262C712.634 680.262 699.241 678.651 695.279 676.458C699.188 681.53 711.736 704.119 719.185 791.015C719.185 792.283 723.412 793.287 728.616 793.287C733.82 793.287 738.047 792.257 738.047 791.015C745.496 704.119 758.044 681.53 761.954 676.458C758.018 678.651 744.598 680.262 728.616 680.262Z" fill="#FFBB8A"/>
</svg>
